<?xml version="1.0" encoding="utf-8"?><!DOCTYPE svg PUBLIC "-//W3C//DTD SVG 1.1//EN" "http://www.w3.org/Graphics/SVG/1.1/DTD/svg11.dtd"><svg width="156.23" height="807" viewBox="0 0 156.23 807" xmlns="http://www.w3.org/2000/svg" xmlns:xlink="http://www.w3.org/1999/xlink"><svg width="42" height="51" viewBox="-3 -3 42 51" id="bg__loadMore" xmlns="http://www.w3.org/2000/svg"><g fill="#FFDE00"><path d="M28.266 7.925L26.05 10.28c4.73 3.051 7.479 8.64 6.545 14.483-.616 3.851-2.72 7.235-5.923 9.53a14.891 14.891 0 0 1-9.549 2.775l.586-.604c-.011-.001-.024.001-.035.001l2.218-2.289-2.048-1.923-4.398 4.542-.001-.002-1.898 1.96 2.047 1.921.001-.001L18.209 45l1.899-1.96-2.989-2.801c4.091.19 8.093-.979 11.449-3.383 3.9-2.793 6.461-6.913 7.211-11.601 1.106-6.924-2.033-13.557-7.513-17.33zM3.406 20.238c.616-3.851 2.72-7.235 5.923-9.53a14.891 14.891 0 0 1 9.549-2.775l-.585.604c.011.001.024-.001.035-.001l-2.218 2.289 2.048 1.923 4.398-4.542.001.002 1.898-1.96-2.047-1.921-.001.001L17.791 0l-1.899 1.96 2.989 2.801A18.127 18.127 0 0 0 7.432 8.144C3.532 10.937.971 15.057.221 19.745c-1.107 6.924 2.033 13.557 7.512 17.33l2.216-2.355c-4.728-3.051-7.477-8.64-6.543-14.482z"/></g></svg><svg width="14" height="14" viewBox="-3.25 -3 14 14" id="bg_dropdown" y="51" xmlns="http://www.w3.org/2000/svg"><path fill="#575756" d="M0 0h7.5L3.75 5.429z"/></svg><svg width="14" height="14" viewBox="-3.25 -3 14 14" id="bg_dropdown_blue" y="65" xmlns="http://www.w3.org/2000/svg"><path fill="#1D92F5" d="M0 0h7.5L3.75 5.429z"/></svg><svg width="14" height="14" viewBox="-3.25 -3 14 14" id="bg_dropdown_white" y="79" xmlns="http://www.w3.org/2000/svg"><path fill="#FFF" d="M0 0h7.5L3.75 5.429z"/></svg><svg width="27.88" height="27.88" viewBox="-3 -3 27.88 27.88" id="bg_head_search" y="93" xmlns="http://www.w3.org/2000/svg"><path fill="#575756" d="M21.613 20.327l-5.26-5.26a9.189 9.189 0 0 0 2.09-5.845 9.221 9.221 0 1 0-9.222 9.22 9.174 9.174 0 0 0 5.841-2.085l5.26 5.256a.912.912 0 0 0 1.291-1.286zm-12.392-3.72c-4.077 0-7.39-3.313-7.39-7.386s3.313-7.39 7.39-7.39c4.073 0 7.39 3.318 7.39 7.39s-3.317 7.386-7.39 7.386z"/></svg><svg width="35.35" height="45.75" viewBox="-3 -6.59 35.35 45.75" id="bg_header_cart" y="121" xmlns="http://www.w3.org/2000/svg"><path fill="#575756" d="M8.363 20.791h17.399a3.589 3.589 0 0 0 3.582-3.582v-7.32-.026-.052c0-.013 0-.026-.006-.039 0-.013-.006-.032-.006-.045 0-.013-.006-.026-.006-.039-.006-.013-.006-.026-.013-.045-.006-.013-.006-.026-.013-.039-.006-.013-.006-.026-.013-.039-.006-.013-.013-.026-.019-.045a.128.128 0 0 0-.019-.032l-.019-.039c-.006-.013-.013-.019-.019-.032-.006-.013-.019-.026-.026-.039-.006-.013-.013-.019-.026-.032-.009-.016-.022-.022-.029-.035-.006-.013-.019-.019-.026-.032-.006-.013-.019-.019-.026-.026l-.032-.032c-.013-.006-.019-.019-.032-.026-.013-.006-.026-.019-.039-.026-.013-.006-.019-.013-.032-.019a.126.126 0 0 1-.039-.026l-.039-.019-.039-.019-.039-.019c-.013-.006-.026-.006-.039-.013-.013-.006-.032-.013-.045-.013s-.026-.006-.032-.006c-.019-.006-.032-.006-.052-.006-.006 0-.013-.006-.026-.006L6.54 5.975V2.899c0-.032 0-.065-.006-.091 0-.006 0-.013-.006-.026 0-.019-.006-.039-.006-.058-.008-.02-.008-.033-.015-.052 0-.013-.006-.019-.006-.032l-.02-.059c0-.006-.006-.019-.006-.026a.195.195 0 0 0-.026-.052c-.007-.007-.007-.02-.013-.026-.007-.013-.013-.026-.026-.039l-.02-.032c-.007-.013-.013-.02-.019-.033-.007-.013-.02-.026-.026-.039l-.02-.019-.038-.039-.02-.02c-.013-.013-.026-.026-.045-.039-.007-.006-.02-.013-.026-.019-.013-.013-.026-.02-.039-.033l-.052-.032c-.007-.006-.013-.006-.02-.013l-.084-.039L1.218.069C.77-.119.258.089.069.537s.019.96.467 1.149L4.78 3.477v19.197a3.587 3.587 0 0 0 3.122 3.55 3.538 3.538 0 0 0-.506 1.817c0 1.953 1.59 3.537 3.537 3.537s3.537-1.59 3.537-3.537c0-.649-.175-1.265-.487-1.785h7.879a3.485 3.485 0 0 0-.487 1.785c0 1.953 1.59 3.537 3.537 3.537s3.537-1.59 3.537-3.537-1.59-3.537-3.537-3.537H8.363a1.832 1.832 0 0 1-1.83-1.83v-2.375c.532.31 1.162.492 1.83.492zm4.361 7.243c0 .986-.805 1.785-1.785 1.785s-1.785-.805-1.785-1.785.805-1.785 1.785-1.785 1.785.798 1.785 1.785zm13.979 0c0 .986-.805 1.785-1.785 1.785s-1.785-.805-1.785-1.785.805-1.785 1.785-1.785c.981 0 1.785.798 1.785 1.785zm-.941-8.995H8.363a1.832 1.832 0 0 1-1.83-1.83V7.74l21.059 2.901v6.561a1.834 1.834 0 0 1-1.83 1.837z"/></svg><svg width="49.16" height="45.32" viewBox="-3 -6.1 49.16 45.32" id="bg_header_chat" y="167" xmlns="http://www.w3.org/2000/svg"><path fill="#575756" d="M31.381 0H2.43C1.09 0 0 1.011 0 2.255V18.37c0 1.243 1.09 2.255 2.43 2.255h1.877v5.999c0 .382.248.726.628.873.126.048.258.072.389.072.265 0 .525-.096.72-.277l7.186-6.667h1.442c.562 0 1.018-.423 1.018-.945s-.456-.945-1.018-.945c0 0-1.913.001-1.933.003-.237.015-.47.106-.651.274l-5.746 5.331s-.002-4.723-.005-4.748c-.046-.482-.482-.86-1.014-.86H2.43c-.217 0-.394-.164-.394-.366V2.255c0-.202.177-.366.394-.366h28.95c.217 0 .394.164.394.366v6.183c0 .522.456.945 1.018.945s1.018-.423 1.018-.945V2.255C33.811 1.011 32.721 0 31.381 0z"/><path fill="#575756" d="M40.727 11.554H20.462c-1.34 0-2.43 1.011-2.43 2.255v10.994c0 1.243 1.09 2.255 2.43 2.255h12.687l5.14 4.769c.195.181.455.277.72.277.131 0 .263-.024.389-.072.38-.146.628-.491.628-.873v-4.101h.7c1.34 0 2.43-1.011 2.43-2.255V13.809c.001-1.243-1.089-2.255-2.429-2.255zm.394 13.249c0 .202-.177.366-.394.366h-1.718c-.536 0-.974.384-1.014.872-.003.021-.004 2.838-.004 2.838l-3.696-3.43-.012-.011a1.057 1.057 0 0 0-.711-.27h-13.11c-.217 0-.394-.164-.394-.366V13.809c0-.202.177-.366.394-.366h20.265c.217 0 .394.164.394.366v10.994z"/><path fill="#575756" d="M30.594 18.361c-.562 0-1.018.423-1.018.945s.456.945 1.018.945 1.018-.423 1.018-.945-.456-.945-1.018-.945zM26.17 6.245H7.641c-.562 0-1.018.423-1.018.945s.456.945 1.018.945H26.17c.562 0 1.018-.423 1.018-.945s-.456-.945-1.018-.945zM14.673 12.49H7.641c-.562 0-1.018.423-1.018.945s.456.945 1.018.945h7.032c.562 0 1.018-.423 1.018-.945s-.456-.945-1.018-.945zM25.864 18.361c-.562 0-1.018.423-1.018.945s.456.945 1.018.945 1.018-.423 1.018-.945-.456-.945-1.018-.945zM35.324 18.361c-.562 0-1.018.423-1.018.945s.456.945 1.018.945 1.018-.423 1.018-.945-.456-.945-1.018-.945z"/></svg><svg width="32.9" height="32.9" viewBox="-3 -3 32.9 32.9" id="bg_header_orders" y="213" xmlns="http://www.w3.org/2000/svg"><path fill="#575756" d="M26.207 11.634a2.368 2.368 0 0 0-3.346.002l-.791.797V7.799c0-.632-.246-1.225-.693-1.672l-2.229-2.229a2.32 2.32 0 0 0-.231-.202V.788A.788.788 0 0 0 18.129 0H.788A.788.788 0 0 0 0 .788v22.123c0 .435.353.788.788.788h2.365v2.417c0 .435.353.788.788.788h17.341a.788.788 0 0 0 .788-.788v-6.973l4.137-4.165a2.367 2.367 0 0 0 0-3.344zm-8.866-6.852h.135a.78.78 0 0 1 .557.231l2.229 2.229a.783.783 0 0 1 .231.557v.135H17.34V4.782zM3.153 3.994v18.129H1.576V1.576H17.34v1.629H3.94a.788.788 0 0 0-.787.789zm17.341 21.334H4.729V4.782h11.035v3.941c0 .435.353.788.788.788h3.941v4.508l-5.383 5.419a.795.795 0 0 0-.208.373l-.694 2.917a.79.79 0 0 0 .947.95l2.924-.687a.787.787 0 0 0 .379-.212l2.035-2.049.001 4.598zm-2.691-4.126l-.303.305-1.461.344.347-1.459.301-.303a2.358 2.358 0 0 1 1.116 1.113zm1.151-1.158a3.945 3.945 0 0 0-1.117-1.112l4.475-4.505 1.115 1.115-4.473 4.502zm6.137-6.179l-.554.557-1.115-1.115.555-.559a.79.79 0 0 1 1.114 1.117z"/></svg><svg width="16" height="23" viewBox="-3 -4.11 16 23" id="bg_mainNavArrow" y="246" xmlns="http://www.w3.org/2000/svg"><path fill="#1D1D1B" d="M2.064 13.629L.703 12.164l5.648-5.252L.707 1.72 2.061.248l7.236 6.656z"/></svg><svg width="31.65" height="27.67" viewBox="-3 -3 31.65 27.67" id="bg_store_icon" y="269" xmlns="http://www.w3.org/2000/svg"><path fill="#C6765B" d="M24.763 21.226H.884V.442c0-.244.198-.442.443-.442h22.994c.244 0 .442.198.442.442v20.784z"/><path fill="#B86252" d="M24.763 7.037a1.14 1.14 0 0 1-.281.038 1.166 1.166 0 0 1-1.166-1.166 1.166 1.166 0 1 1-2.332 0 1.166 1.166 0 1 1-2.332 0 1.166 1.166 0 1 1-2.332 0 1.166 1.166 0 1 1-2.33 0 1.166 1.166 0 1 1-2.332 0 1.166 1.166 0 1 1-2.332 0 1.166 1.166 0 1 1-2.332 0 1.166 1.166 0 1 1-2.331 0 1.166 1.166 0 1 1-2.332 0c0 .644-.522 1.166-1.166 1.166-.098 0-.191-.016-.281-.038v.894c.093.013.185.029.282.029.432 0 .834-.135 1.165-.365a2.04 2.04 0 0 0 2.332 0c.331.23.733.365 1.166.365s.835-.135 1.166-.365c.331.23.733.365 1.166.365.433 0 .835-.135 1.166-.365.331.23.733.365 1.166.365.433 0 .835-.135 1.166-.365.331.23.733.365 1.166.365.433 0 .835-.135 1.166-.365.331.23.733.365 1.166.365s.835-.135 1.166-.365c.331.23.733.365 1.166.365s.835-.135 1.166-.365c.331.23.733.365 1.166.365s.835-.135 1.166-.365c.331.23.733.365 1.166.365.433 0 .835-.135 1.166-.365.331.23.733.365 1.166.365.096 0 .189-.016.281-.028l-.003-.895z"/><path fill="#9DD6EE" d="M3.095 8.844h12.382v7.96H3.095z"/><path fill="#CFEAF6" d="M13.266 16.361h-.884L7.075 9.286h.885z"/><g fill="#E05457"><path d="M10.492 7.075a1.166 1.166 0 0 1-1.166-1.166V4.864h2.332v1.045c0 .644-.522 1.166-1.166 1.166zM15.155 7.075a1.166 1.166 0 0 1-1.166-1.166V4.864h2.332v1.045c0 .644-.522 1.166-1.166 1.166zM5.829 7.075a1.166 1.166 0 0 1-1.166-1.166V4.864h2.332v1.045c0 .644-.522 1.166-1.166 1.166zM1.166 7.075A1.166 1.166 0 0 1 0 5.909V4.864h2.332v1.045c0 .644-.522 1.166-1.166 1.166zM19.819 7.075a1.166 1.166 0 0 1-1.166-1.166V4.864h2.332v1.045a1.167 1.167 0 0 1-1.166 1.166z"/></g><g fill="#C2CDDF"><path d="M8.161 7.075a1.166 1.166 0 0 1-1.166-1.166V4.864h2.332v1.045a1.167 1.167 0 0 1-1.166 1.166zM17.487 7.075a1.166 1.166 0 0 1-1.166-1.166V4.864h2.332v1.045c0 .644-.522 1.166-1.166 1.166z"/></g><path fill="#E05457" d="M24.482 7.075a1.166 1.166 0 0 1-1.166-1.166V4.864h2.332v1.045c0 .644-.522 1.166-1.166 1.166z"/><g fill="#C2CDDF"><path d="M22.15 7.075a1.166 1.166 0 0 1-1.166-1.166V4.864h2.332v1.045c0 .644-.522 1.166-1.166 1.166zM3.497 7.075a1.166 1.166 0 0 1-1.166-1.166V4.864h2.332v1.045c0 .644-.522 1.166-1.166 1.166zM12.824 7.075a1.166 1.166 0 0 1-1.166-1.166V4.864h2.332v1.045c0 .644-.522 1.166-1.166 1.166z"/></g><g fill="#EB6366"><path d="M11.658 4.864H9.326l.242-3.537h2.17zM16.321 4.864H13.99l-.081-3.537h2.171zM6.995 4.864H4.663l.563-3.537h2.171zM2.332 4.864H0l.884-3.537h2.171zM20.984 4.864h-2.331l-.402-3.537h2.171z"/></g><g fill="#EDF1F9"><path d="M9.326 4.864H6.995l.402-3.537h2.171zM18.653 4.864h-2.332l-.241-3.537h2.171z"/></g><path fill="#EB6366" d="M25.648 4.864h-2.332l-.724-3.537h2.171z"/><g fill="#EDF1F9"><path d="M23.316 4.864h-2.332l-.562-3.537h2.17zM4.663 4.864H2.332l.723-3.537h2.171zM13.99 4.864h-2.332l.08-3.537h2.171z"/></g><path fill="#C2CDDF" d="M25.205 21.668H.442a.442.442 0 0 1 0-.884h24.763c.244 0 .442.198.442.442a.44.44 0 0 1-.442.442z"/><path fill="#A9B6CF" d="M.884 19.899h23.879v.884H.884z" opacity=".97"/><path fill="#B86252" d="M.884 18.13h23.879v1.769H.884z"/><g fill="#585B6E"><path d="M15.035 9.286v7.075H3.538V9.286h11.497m.442-.884H3.095a.442.442 0 0 0-.442.442v7.96c0 .244.198.442.442.442h12.382a.442.442 0 0 0 .442-.442v-7.96a.442.442 0 0 0-.442-.442zM22.552 8.402H18.13a.442.442 0 0 0-.442.442v11.055h5.306V8.844a.442.442 0 0 0-.442-.442z"/></g><path fill="#9DD6EE" d="M18.572 9.286h3.538v7.075h-3.538z"/><path fill="#85CAE5" d="M3.538 9.286h11.497v.884H3.538zM18.572 9.286h3.538v.884h-3.538z"/><path fill="#85CAE5" d="M11.497 16.361H9.728L4.422 9.286h1.769z"/><path fill="#9DD6EE" d="M8.623 10.171l-.663-.885h-.885l.664.885z"/><path fill="#CFEAF6" d="M22.11 12.824l-2.653-3.538h-.885l3.538 4.717z"/><path fill="#9DD6EE" d="M20.12 10.171l-.663-.885h-.885l.664.885z"/><path fill="#85CAE5" d="M18.572 9.286h3.538v.884h-3.538z"/><path fill="#CFEAF6" d="M22.11 12.824l-2.653-3.538h-.885l3.538 4.717z"/><path fill="#85CAE5" d="M18.572 10.465v2.359l2.654 3.537h.884v-1.179z"/></svg><svg width="30.59" height="27.73" viewBox="-3 -3 30.59 27.73" id="bg_user_icon" y="297" xmlns="http://www.w3.org/2000/svg"><path fill="#556080" d="M12.503.002C5.715-.114.118 5.295.002 12.083c-.066 3.849 1.65 7.308 4.381 9.608.179-.156.37-.299.583-.415l3.668-2.001a1.5 1.5 0 0 0 .781-1.315v-1.503s-1.077-1.288-1.487-3.077a1.234 1.234 0 0 1-.569-1.035V10.7c0-.362.161-.685.411-.912V7.411s-.488-3.7 4.523-3.7 4.523 3.7 4.523 3.7v2.378c.25.226.411.55.411.912v1.645c0 .553-.371 1.018-.875 1.174a9.046 9.046 0 0 1-1.221 2.46 5.794 5.794 0 0 1-.372.478v1.541a1.5 1.5 0 0 0 .828 1.34l3.928 1.964c.236.118.449.267.645.432a12.262 12.262 0 0 0 4.424-9.231C24.7 5.715 19.291.118 12.503.002z"/></svg><svg width="20.8" height="20.08" viewBox="-3 -3 20.8 20.08" id="favorite" y="325" xmlns="http://www.w3.org/2000/svg"><path fill="#F9C815" d="M7.401 0l2.287 4.634 5.115.743-3.701 3.608.873 5.093-4.574-2.404-4.574 2.404.874-5.093L0 5.377l5.114-.743z"/></svg><svg width="156.23" height="196.91" viewBox="-3 -3 156.23 196.91" id="loadMoreProductIcon" y="346" xmlns="http://www.w3.org/2000/svg"><g fill="#FD0"><path d="M117.953 33.621l-9.249 9.99c19.739 12.943 31.209 36.656 27.311 61.44-2.569 16.336-11.349 30.695-24.717 40.43-11.669 8.498-25.621 12.586-39.848 11.772l2.443-2.564c-.047-.002-.099.004-.146.002l9.255-9.71-8.547-8.157-18.354 19.268-.004-.007-7.919 8.316 8.542 8.15.004-.002 19.261 18.356 7.926-8.316-12.474-11.885c17.071.807 33.771-4.154 47.778-14.352 16.276-11.849 26.961-29.328 30.09-49.215 4.613-29.37-8.486-57.51-31.352-73.516zM14.213 85.855c2.569-16.336 11.349-30.695 24.717-40.43 11.67-8.498 25.621-12.587 39.848-11.773l-2.443 2.564c.047.002.099-.004.146-.002l-9.255 9.71 8.547 8.157 18.354-19.268.004.007 7.919-8.316-8.542-8.15-.004.002L74.241 0l-7.926 8.316 12.474 11.885c-17.071-.807-33.771 4.154-47.778 14.352C14.735 46.402 4.05 63.881.921 83.768c-4.618 29.373 8.484 57.513 31.348 73.52l9.249-9.99c-19.733-12.948-31.203-36.659-27.305-61.443z"/></g></svg><svg id="rank-01" viewBox="-3 -3 42.7 40.9" width="42.7" height="40.9" y="543" xmlns="http://www.w3.org/2000/svg"><style>.nst0{fill:#f9c815}.st1{fill:#e6e7e8}.st2{fill:#ed1c24}</style><path class="nst0" d="M18.3 0L24 11.5l12.7 1.8-9.2 9 2.2 12.6-11.4-6-11.3 6 2.2-12.6-9.2-9 12.7-1.8z"/></svg><svg id="rank-02" viewBox="-3 -3 42.7 40.9" width="42.7" height="40.9" y="584" xmlns="http://www.w3.org/2000/svg"><style>.ost0{fill:#f9c815}.ost1{fill:#e6e7e8}.st2{fill:#ed1c24}</style><path class="ost1" d="M18.3 0L24 11.5l12.7 1.8-9.2 9 2.2 12.6-11.4-6-11.3 6 2.2-12.6-9.2-9 12.7-1.8z"/><path class="ost0" d="M36.7 13.3l-9.2 9 2.2 12.6-11.4-6-11.3 6 2.2-12.6-9.2-9 23.4-3 .6 1z"/></svg><svg id="rank-03" viewBox="-3 -3 42.7 40.9" width="42.7" height="40.9" y="625" xmlns="http://www.w3.org/2000/svg"><style>.pst0{fill:#f9c815}.pst1{fill:#e6e7e8}.st2{fill:#ed1c24}</style><path class="pst1" d="M18.3 0L24 11.5l12.7 1.8-9.2 9 2.2 12.6-11.4-6-11.3 6 2.2-12.6-9.2-9 12.7-1.8z"/><path class="pst0" d="M31.9 18l-4.4 4.3 2.2 12.6-11.3-6-11.4 6 2.2-12.6-6.9-6.7z"/></svg><svg id="rank-04" viewBox="-3 -3 42.7 40.9" width="42.7" height="40.9" y="666" xmlns="http://www.w3.org/2000/svg"><style>.qst0{fill:#f9c815}.qst1{fill:#e6e7e8}.st2{fill:#ed1c24}</style><path class="qst1" d="M18.3 0L24 11.5l12.7 1.8-9.2 9 2.2 12.6-11.4-6-11.3 6 2.2-12.6-9.2-9 12.7-1.8z"/><path class="qst0" d="M29.6 20.4l-2.1 1.9 2.2 12.6-11.3-6-11.4 6 2.2-12.6z"/></svg><svg id="rank-05" viewBox="-3 -3 42.7 40.9" width="42.7" height="40.9" y="707" xmlns="http://www.w3.org/2000/svg"><style>.st0{fill:#f9c815}.rst1{fill:#e6e7e8}.rst2{fill:#ed1c24}</style><path class="rst1" d="M18.3 0L24 11.5l12.7 1.8-9.2 9 2.2 12.6-11.4-6-11.3 6 2.2-12.6-9.2-9 12.7-1.8z"/><path class="rst2" d="M28.3 26.6l1.4 8.3-11.4-6-11.3 6 2.2-12.6z"/></svg><svg id="rank-06" viewBox="-3 -3 42.7 40.9" width="42.7" height="40.9" y="748" xmlns="http://www.w3.org/2000/svg"><style>.st0{fill:#f9c815}.sst1{fill:#e6e7e8}.sst2{fill:#ed1c24}</style><path class="sst1" d="M18.3 0L24 11.5l12.7 1.8-9.2 9 2.2 12.6-11.4-6-11.3 6 2.2-12.6-9.2-9 12.7-1.8z"/><path class="sst2" d="M28.4 27.1l1.3 7.8-11.4-6-11.3 6 .9-5.2z"/></svg><svg width="17.4" height="17.4" viewBox="-3 -3 17.4 17.4" id="removeCrossRed" y="789" xmlns="http://www.w3.org/2000/svg"><path fill="#E20613" d="M.707 0L11.396 10.69l-.707.707L0 .707z"/><path fill="#E20613" d="M10.689 0l.707.707L.707 11.396 0 10.689z"/></svg></svg>