<?xml version="1.0" encoding="utf-8"?>
<!-- Generator: Adobe Illustrator 17.0.0, SVG Export Plug-In . SVG Version: 6.00 Build 0)  -->
<!DOCTYPE svg PUBLIC "-//W3C//DTD SVG 1.1//EN" "http://www.w3.org/Graphics/SVG/1.1/DTD/svg11.dtd">
<svg version="1.1" id="Layer_1" xmlns="http://www.w3.org/2000/svg" xmlns:xlink="http://www.w3.org/1999/xlink" x="0px" y="0px"
	 width="43.156px" height="39.315px" viewBox="0 -3.098 43.156 39.315" enable-background="new 0 -3.098 43.156 39.315"
	 xml:space="preserve">
<g>
	<g>
		<g>
			<path fill="#575756" d="M31.381,0H2.43C1.09,0,0,1.011,0,2.255V18.37c0,1.243,1.09,2.255,2.43,2.255h1.877v5.999
				c0,0.382,0.248,0.726,0.628,0.873c0.126,0.048,0.258,0.072,0.389,0.072c0.265,0,0.525-0.096,0.72-0.277l7.186-6.667h1.442
				c0.562,0,1.018-0.423,1.018-0.945s-0.456-0.945-1.018-0.945c0,0-1.913,0.001-1.933,0.003c-0.237,0.015-0.47,0.106-0.651,0.274
				l-5.746,5.331c0,0-0.002-4.723-0.005-4.748c-0.046-0.482-0.482-0.86-1.014-0.86H2.43c-0.217,0-0.394-0.164-0.394-0.366V2.255
				c0-0.202,0.177-0.366,0.394-0.366h28.95c0.217,0,0.394,0.164,0.394,0.366v6.183c0,0.522,0.456,0.945,1.018,0.945
				S33.81,8.96,33.81,8.438V2.255C33.811,1.011,32.721,0,31.381,0z"/>
		</g>
	</g>
	<g>
		<g>
			<path fill="#575756" d="M40.727,11.554H20.462c-1.34,0-2.43,1.011-2.43,2.255v10.994c0,1.243,1.09,2.255,2.43,2.255h12.687
				l5.14,4.769c0.195,0.181,0.455,0.277,0.72,0.277c0.131,0,0.263-0.024,0.389-0.072c0.38-0.146,0.628-0.491,0.628-0.873v-4.101h0.7
				c1.34,0,2.43-1.011,2.43-2.255V13.809C43.157,12.566,42.067,11.554,40.727,11.554z M41.121,24.803
				c0,0.202-0.177,0.366-0.394,0.366h-1.718c-0.536,0-0.974,0.384-1.014,0.872c-0.003,0.021-0.004,2.838-0.004,2.838l-3.696-3.43
				c-0.004-0.004-0.008-0.007-0.012-0.011c-0.014-0.013-0.028-0.025-0.041-0.035c-0.179-0.146-0.413-0.235-0.67-0.235h-13.11
				c-0.217,0-0.394-0.164-0.394-0.366V13.809c0-0.202,0.177-0.366,0.394-0.366h20.265c0.217,0,0.394,0.164,0.394,0.366V24.803z"/>
		</g>
	</g>
	<g>
		<g>
			<path fill="#575756" d="M30.594,18.361c-0.562,0-1.018,0.423-1.018,0.945s0.456,0.945,1.018,0.945s1.018-0.423,1.018-0.945
				S31.156,18.361,30.594,18.361z"/>
		</g>
	</g>
	<g>
		<g>
			<path fill="#575756" d="M26.17,6.245H7.641c-0.562,0-1.018,0.423-1.018,0.945s0.456,0.945,1.018,0.945H26.17
				c0.562,0,1.018-0.423,1.018-0.945S26.732,6.245,26.17,6.245z"/>
		</g>
	</g>
	<g>
		<g>
			<path fill="#575756" d="M14.673,12.49H7.641c-0.562,0-1.018,0.423-1.018,0.945c0,0.522,0.456,0.945,1.018,0.945h7.032
				c0.562,0,1.018-0.423,1.018-0.945S15.235,12.49,14.673,12.49z"/>
		</g>
	</g>
	<g>
		<g>
			<path fill="#575756" d="M25.864,18.361c-0.562,0-1.018,0.423-1.018,0.945s0.456,0.945,1.018,0.945s1.018-0.423,1.018-0.945
				S26.426,18.361,25.864,18.361z"/>
		</g>
	</g>
	<g>
		<g>
			<path fill="#575756" d="M35.324,18.361c-0.562,0-1.018,0.423-1.018,0.945s0.456,0.945,1.018,0.945s1.018-0.423,1.018-0.945
				S35.886,18.361,35.324,18.361z"/>
		</g>
	</g>
</g>
</svg>
