<?xml version="1.0" encoding="utf-8"?>
<!-- Generator: Adobe Illustrator 17.0.0, SVG Export Plug-In . SVG Version: 6.00 Build 0)  -->
<!DOCTYPE svg PUBLIC "-//W3C//DTD SVG 1.1//EN" "http://www.w3.org/Graphics/SVG/1.1/DTD/svg11.dtd">
<svg version="1.1" id="Layer_1" xmlns="http://www.w3.org/2000/svg" xmlns:xlink="http://www.w3.org/1999/xlink" x="0px" y="0px"
	 width="26.899px" height="26.904px" viewBox="0 0 26.899 26.904" enable-background="new 0 0 26.899 26.904" xml:space="preserve">
<g>
	<g>
		<path fill="#575756" d="M26.207,11.634c-0.922-0.922-2.422-0.922-3.346,0.002l-0.791,0.797V7.799c0-0.632-0.246-1.225-0.693-1.672
			l-2.229-2.229c-0.073-0.073-0.15-0.14-0.231-0.202V0.788C18.917,0.353,18.564,0,18.129,0H0.788C0.353,0,0,0.353,0,0.788v22.123
			c0,0.435,0.353,0.788,0.788,0.788h2.365v2.417c0,0.435,0.353,0.788,0.788,0.788h17.341c0.435,0,0.788-0.353,0.788-0.788v-6.973
			l4.137-4.165C27.129,14.056,27.129,12.556,26.207,11.634z M17.341,4.782h0.135c0.211,0,0.409,0.082,0.557,0.231l2.229,2.229
			c0.149,0.149,0.231,0.347,0.231,0.557v0.135h-3.153V4.782z M3.153,3.994v18.129H1.576V1.576h15.764v1.629h-13.4
			C3.506,3.205,3.153,3.558,3.153,3.994z M20.494,25.328L20.494,25.328H4.729V4.782h11.035v3.941c0,0.435,0.353,0.788,0.788,0.788
			h3.941v4.508l-5.383,5.419c-0.102,0.103-0.174,0.232-0.208,0.373l-0.694,2.917c-0.136,0.572,0.38,1.083,0.947,0.95l2.924-0.687
			c0.144-0.034,0.275-0.107,0.379-0.212c0.214-0.216,1.82-1.833,2.035-2.049L20.494,25.328L20.494,25.328z M17.803,21.202
			l-0.303,0.305l-1.461,0.344l0.347-1.459l0.301-0.303c0.242,0.115,0.464,0.271,0.655,0.462
			C17.533,20.742,17.688,20.962,17.803,21.202z M18.954,20.044c-0.144-0.217-0.311-0.421-0.497-0.607
			c-0.19-0.19-0.398-0.359-0.62-0.505c0.286-0.288,4.189-4.217,4.475-4.505l1.115,1.115L18.954,20.044z M25.091,13.865l-0.554,0.557
			l-1.115-1.115l0.555-0.559c0.307-0.307,0.808-0.307,1.115,0C25.4,13.056,25.4,13.556,25.091,13.865z"/>
	</g>
</g>
</svg>
