<?xml version="1.0" encoding="utf-8"?>
<!-- Generator: Adobe Illustrator 17.0.0, SVG Export Plug-In . SVG Version: 6.00 Build 0)  -->
<!DOCTYPE svg PUBLIC "-//W3C//DTD SVG 1.1//EN" "http://www.w3.org/Graphics/SVG/1.1/DTD/svg11.dtd">
<svg version="1.1" id="Layer_1" xmlns="http://www.w3.org/2000/svg" xmlns:xlink="http://www.w3.org/1999/xlink" x="0px" y="0px"
	 width="29.345px" height="39.748px" viewBox="0 -3.593 29.345 39.748" enable-background="new 0 -3.593 29.345 39.748"
	 xml:space="preserve">
<path fill="#575756" d="M8.363,20.791h17.399c1.973,0,3.582-1.609,3.582-3.582v-7.32c0-0.006,0-0.019,0-0.026
	c0-0.019,0-0.032,0-0.052c0-0.013,0-0.026-0.006-0.039c0-0.013-0.006-0.032-0.006-0.045c0-0.013-0.006-0.026-0.006-0.039
	c-0.006-0.013-0.006-0.026-0.013-0.045C29.307,9.63,29.307,9.617,29.3,9.604c-0.006-0.013-0.006-0.026-0.013-0.039
	c-0.006-0.013-0.013-0.026-0.019-0.045c-0.006-0.013-0.013-0.026-0.019-0.032c-0.006-0.013-0.013-0.026-0.019-0.039
	c-0.006-0.013-0.013-0.019-0.019-0.032c-0.006-0.013-0.019-0.026-0.026-0.039c-0.006-0.013-0.013-0.019-0.026-0.032
	C29.15,9.33,29.137,9.324,29.13,9.311c-0.006-0.013-0.019-0.019-0.026-0.032c-0.006-0.013-0.019-0.019-0.026-0.026
	c-0.013-0.013-0.019-0.019-0.032-0.032c-0.013-0.006-0.019-0.019-0.032-0.026c-0.013-0.006-0.026-0.019-0.039-0.026
	c-0.013-0.006-0.019-0.013-0.032-0.019c-0.013-0.006-0.026-0.013-0.039-0.026c-0.013-0.006-0.026-0.013-0.039-0.019
	c-0.013-0.006-0.026-0.013-0.039-0.019C28.813,9.08,28.8,9.073,28.787,9.067c-0.013-0.006-0.026-0.006-0.039-0.013
	c-0.013-0.006-0.032-0.013-0.045-0.013s-0.026-0.006-0.032-0.006c-0.019-0.006-0.032-0.006-0.052-0.006
	c-0.006,0-0.013-0.006-0.026-0.006L6.54,5.975V2.899c0-0.032,0-0.065-0.006-0.091c0-0.006,0-0.013-0.006-0.026
	c0-0.019-0.006-0.039-0.006-0.058c-0.008-0.02-0.008-0.033-0.015-0.052c0-0.013-0.006-0.019-0.006-0.032
	C6.494,2.62,6.488,2.6,6.481,2.581c0-0.006-0.006-0.019-0.006-0.026c-0.007-0.02-0.013-0.033-0.026-0.052
	c-0.007-0.007-0.007-0.02-0.013-0.026C6.429,2.464,6.423,2.451,6.41,2.438C6.403,2.425,6.397,2.419,6.39,2.406
	s-0.013-0.02-0.019-0.033C6.364,2.36,6.351,2.347,6.345,2.334c-0.007-0.006-0.013-0.013-0.02-0.019
	C6.312,2.302,6.3,2.289,6.287,2.276c-0.007-0.007-0.013-0.013-0.02-0.02C6.254,2.243,6.241,2.23,6.222,2.217
	c-0.007-0.006-0.02-0.013-0.026-0.019C6.183,2.185,6.17,2.178,6.157,2.165C6.137,2.153,6.118,2.14,6.105,2.133
	C6.098,2.127,6.092,2.127,6.085,2.12C6.059,2.107,6.027,2.094,6.001,2.081L1.218,0.069c-0.448-0.188-0.96,0.02-1.149,0.468
	s0.019,0.96,0.467,1.149L4.78,3.477v3.972v0.63v4.828v4.316v5.451c0,1.817,1.363,3.323,3.122,3.55
	c-0.318,0.532-0.506,1.155-0.506,1.817c0,1.953,1.59,3.537,3.537,3.537s3.537-1.59,3.537-3.537c0-0.649-0.175-1.265-0.487-1.785
	h7.879c-0.312,0.526-0.487,1.136-0.487,1.785c0,1.953,1.59,3.537,3.537,3.537s3.537-1.59,3.537-3.537s-1.59-3.537-3.537-3.537H8.363
	c-1.012,0-1.83-0.824-1.83-1.83v-2.375C7.065,20.609,7.695,20.791,8.363,20.791z M12.724,28.034c0,0.986-0.805,1.785-1.785,1.785
	s-1.785-0.805-1.785-1.785s0.805-1.785,1.785-1.785S12.724,27.047,12.724,28.034z M26.703,28.034c0,0.986-0.805,1.785-1.785,1.785
	s-1.785-0.805-1.785-1.785s0.805-1.785,1.785-1.785C25.899,26.249,26.703,27.047,26.703,28.034z M25.762,19.039H8.363
	c-1.012,0-1.83-0.824-1.83-1.83v-4.316V8.065V7.74l21.059,2.901v6.561C27.592,18.221,26.768,19.039,25.762,19.039z"/>
</svg>
