<?xml version="1.0" encoding="utf-8"?>
<!-- Generator: Adobe Illustrator 17.0.0, SVG Export Plug-In . SVG Version: 6.00 Build 0)  -->
<!DOCTYPE svg PUBLIC "-//W3C//DTD SVG 1.1//EN" "http://www.w3.org/Graphics/SVG/1.1/DTD/svg11.dtd">
<svg version="1.1" id="Layer_1" xmlns="http://www.w3.org/2000/svg" xmlns:xlink="http://www.w3.org/1999/xlink" x="0px" y="0px"
	 width="21.881px" height="21.881px" viewBox="0 0 21.881 21.881" enable-background="new 0 0 21.881 21.881" xml:space="preserve">
<path fill="#575756" d="M21.613,20.327l-5.26-5.26c1.304-1.59,2.09-3.626,2.09-5.845C18.442,4.131,14.312,0,9.221,0
	C4.126,0,0,4.131,0,9.221s4.126,9.221,9.221,9.221c2.219,0,4.251-0.781,5.841-2.085l5.26,5.256c0.357,0.357,0.933,0.357,1.291,0
	C21.97,21.26,21.97,20.68,21.613,20.327z M9.221,16.607c-4.077,0-7.39-3.313-7.39-7.386s3.313-7.39,7.39-7.39
	c4.073,0,7.39,3.318,7.39,7.39S13.294,16.607,9.221,16.607z"/>
</svg>
