<?xml version="1.0" encoding="utf-8"?>
<!-- Generator: Adobe Illustrator 17.0.0, SVG Export Plug-In . SVG Version: 6.00 Build 0)  -->
<!DOCTYPE svg PUBLIC "-//W3C//DTD SVG 1.1//EN" "http://www.w3.org/Graphics/SVG/1.1/DTD/svg11.dtd">
<svg version="1.1" id="Layer_1" xmlns="http://www.w3.org/2000/svg" xmlns:xlink="http://www.w3.org/1999/xlink" x="0px" y="0px"
	 width="25.648px" height="21.668px" viewBox="0 0 25.648 21.668" enable-background="new 0 0 25.648 21.668" xml:space="preserve">
<g>
	<path fill="#C6765B" d="M24.763,21.226H0.884V0.442C0.884,0.198,1.082,0,1.327,0h22.994c0.244,0,0.442,0.198,0.442,0.442V21.226z"
		/>
	<path fill="#B86252" d="M24.763,7.037c-0.091,0.023-0.184,0.038-0.281,0.038c-0.644,0-1.166-0.522-1.166-1.166
		c0,0.644-0.522,1.166-1.166,1.166c-0.644,0-1.166-0.522-1.166-1.166c0,0.644-0.522,1.166-1.166,1.166
		c-0.644,0-1.166-0.522-1.166-1.166c0,0.644-0.522,1.166-1.166,1.166s-1.166-0.522-1.166-1.166c0,0.644-0.522,1.166-1.166,1.166
		S13.99,6.553,13.99,5.909c0,0.644-0.522,1.166-1.166,1.166s-1.166-0.522-1.166-1.166c0,0.644-0.522,1.166-1.166,1.166
		S9.326,6.553,9.326,5.909c0,0.644-0.522,1.166-1.166,1.166c-0.644,0-1.166-0.522-1.166-1.166c0,0.644-0.522,1.166-1.166,1.166
		S4.663,6.553,4.663,5.909c0,0.644-0.522,1.166-1.166,1.166S2.331,6.553,2.331,5.909c0,0.644-0.522,1.166-1.166,1.166
		c-0.098,0-0.191-0.016-0.281-0.038v0.894C0.977,7.944,1.069,7.96,1.166,7.96C1.598,7.96,2,7.825,2.331,7.595
		C2.663,7.825,3.064,7.96,3.497,7.96c0.433,0,0.835-0.135,1.166-0.365C4.994,7.825,5.396,7.96,5.829,7.96s0.835-0.135,1.166-0.365
		C7.326,7.825,7.728,7.96,8.161,7.96c0.433,0,0.835-0.135,1.166-0.365c0.331,0.23,0.733,0.365,1.166,0.365
		c0.433,0,0.835-0.135,1.166-0.365c0.331,0.23,0.733,0.365,1.166,0.365c0.433,0,0.835-0.135,1.166-0.365
		c0.331,0.23,0.733,0.365,1.166,0.365s0.835-0.135,1.166-0.365c0.331,0.23,0.733,0.365,1.166,0.365s0.835-0.135,1.166-0.365
		c0.331,0.23,0.733,0.365,1.166,0.365s0.835-0.135,1.166-0.365c0.331,0.23,0.733,0.365,1.166,0.365c0.433,0,0.835-0.135,1.166-0.365
		c0.331,0.23,0.733,0.365,1.166,0.365c0.096,0,0.189-0.016,0.281-0.028L24.763,7.037L24.763,7.037L24.763,7.037z"/>
	<rect x="3.095" y="8.844" fill="#9DD6EE" width="12.382" height="7.96"/>
	<polygon fill="#CFEAF6" points="13.266,16.361 12.382,16.361 7.075,9.286 7.96,9.286 	"/>
	<g>
		<path fill="#E05457" d="M10.492,7.075L10.492,7.075c-0.644,0-1.166-0.522-1.166-1.166V4.864h2.332v1.045
			C11.658,6.553,11.136,7.075,10.492,7.075z"/>
		<path fill="#E05457" d="M15.155,7.075L15.155,7.075c-0.644,0-1.166-0.522-1.166-1.166V4.864h2.332v1.045
			C16.321,6.553,15.799,7.075,15.155,7.075z"/>
		<path fill="#E05457" d="M5.829,7.075L5.829,7.075c-0.644,0-1.166-0.522-1.166-1.166V4.864h2.332v1.045
			C6.995,6.553,6.473,7.075,5.829,7.075z"/>
		<path fill="#E05457" d="M1.166,7.075L1.166,7.075C0.522,7.075,0,6.553,0,5.909V4.864h2.332v1.045
			C2.332,6.553,1.81,7.075,1.166,7.075z"/>
		<path fill="#E05457" d="M19.819,7.075L19.819,7.075c-0.644,0-1.166-0.522-1.166-1.166V4.864h2.332v1.045
			C20.984,6.553,20.463,7.075,19.819,7.075z"/>
	</g>
	<g>
		<path fill="#C2CDDF" d="M8.161,7.075L8.161,7.075c-0.644,0-1.166-0.522-1.166-1.166V4.864h2.332v1.045
			C9.326,6.553,8.805,7.075,8.161,7.075z"/>
		<path fill="#C2CDDF" d="M17.487,7.075L17.487,7.075c-0.644,0-1.166-0.522-1.166-1.166V4.864h2.332v1.045
			C18.653,6.553,18.131,7.075,17.487,7.075z"/>
	</g>
	<path fill="#E05457" d="M24.482,7.075L24.482,7.075c-0.644,0-1.166-0.522-1.166-1.166V4.864h2.332v1.045
		C25.648,6.553,25.126,7.075,24.482,7.075z"/>
	<g>
		<path fill="#C2CDDF" d="M22.15,7.075L22.15,7.075c-0.644,0-1.166-0.522-1.166-1.166V4.864h2.332v1.045
			C23.316,6.553,22.794,7.075,22.15,7.075z"/>
		<path fill="#C2CDDF" d="M3.497,7.075L3.497,7.075c-0.644,0-1.166-0.522-1.166-1.166V4.864h2.332v1.045
			C4.663,6.553,4.141,7.075,3.497,7.075z"/>
		<path fill="#C2CDDF" d="M12.824,7.075L12.824,7.075c-0.644,0-1.166-0.522-1.166-1.166V4.864h2.332v1.045
			C13.99,6.553,13.468,7.075,12.824,7.075z"/>
	</g>
	<g>
		<polygon fill="#EB6366" points="11.658,4.864 9.326,4.864 9.568,1.327 11.738,1.327 		"/>
		<polygon fill="#EB6366" points="16.321,4.864 13.99,4.864 13.909,1.327 16.08,1.327 		"/>
		<polygon fill="#EB6366" points="6.995,4.864 4.663,4.864 5.226,1.327 7.397,1.327 		"/>
		<polygon fill="#EB6366" points="2.332,4.864 0,4.864 0.884,1.327 3.055,1.327 		"/>
		<polygon fill="#EB6366" points="20.984,4.864 18.653,4.864 18.251,1.327 20.422,1.327 		"/>
	</g>
	<g>
		<polygon fill="#EDF1F9" points="9.326,4.864 6.995,4.864 7.397,1.327 9.568,1.327 		"/>
		<polygon fill="#EDF1F9" points="18.653,4.864 16.321,4.864 16.08,1.327 18.251,1.327 		"/>
	</g>
	<polygon fill="#EB6366" points="25.648,4.864 23.316,4.864 22.592,1.327 24.763,1.327 	"/>
	<g>
		<polygon fill="#EDF1F9" points="23.316,4.864 20.984,4.864 20.422,1.327 22.592,1.327 		"/>
		<polygon fill="#EDF1F9" points="4.663,4.864 2.332,4.864 3.055,1.327 5.226,1.327 		"/>
		<polygon fill="#EDF1F9" points="13.99,4.864 11.658,4.864 11.738,1.327 13.909,1.327 		"/>
	</g>
	<path fill="#C2CDDF" d="M25.205,21.668H0.442C0.198,21.668,0,21.47,0,21.226l0,0c0-0.244,0.198-0.442,0.442-0.442h24.763
		c0.244,0,0.442,0.198,0.442,0.442l0,0C25.648,21.47,25.45,21.668,25.205,21.668z"/>
	<g opacity="0.97">
		<rect x="0.884" y="19.899" fill="#A9B6CF" width="23.879" height="0.884"/>
	</g>
	<rect x="0.884" y="18.13" fill="#B86252" width="23.879" height="1.769"/>
	<g>
		<path fill="#585B6E" d="M15.035,9.286v7.075H3.538V9.286H15.035 M15.477,8.402H3.095c-0.244,0-0.442,0.198-0.442,0.442v7.96
			c0,0.244,0.198,0.442,0.442,0.442h12.382c0.244,0,0.442-0.198,0.442-0.442v-7.96C15.919,8.6,15.721,8.402,15.477,8.402
			L15.477,8.402z"/>
		<path fill="#585B6E" d="M22.552,8.402H18.13c-0.244,0-0.442,0.198-0.442,0.442v11.055h5.306V8.844
			C22.994,8.6,22.796,8.402,22.552,8.402z"/>
	</g>
	<rect x="18.572" y="9.286" fill="#9DD6EE" width="3.538" height="7.075"/>
	<rect x="3.538" y="9.286" fill="#85CAE5" width="11.497" height="0.884"/>
	<rect id="SVGCleanerId_0" x="18.572" y="9.286" fill="#85CAE5" width="3.538" height="0.884"/>
	<polygon fill="#85CAE5" points="11.497,16.361 9.728,16.361 4.422,9.286 6.191,9.286 	"/>
	<polygon fill="#9DD6EE" points="8.623,10.171 7.96,9.286 7.075,9.286 7.739,10.171 	"/>
	<polygon fill="#CFEAF6" points="22.11,12.824 19.457,9.286 18.572,9.286 22.11,14.003 	"/>
	<polygon fill="#9DD6EE" points="20.12,10.171 19.457,9.286 18.572,9.286 19.236,10.171 	"/>
	<g>
		<rect id="SVGCleanerId_0_1_" x="18.572" y="9.286" fill="#85CAE5" width="3.538" height="0.884"/>
	</g>
	<polygon fill="#CFEAF6" points="22.11,12.824 19.457,9.286 18.572,9.286 22.11,14.003 	"/>
	<polygon fill="#85CAE5" points="18.572,10.465 18.572,12.824 21.226,16.361 22.11,16.361 22.11,15.182 	"/>
</g>
</svg>
