<?xml version="1.0" encoding="utf-8"?>
<!-- Generator: Adobe Illustrator 17.0.0, SVG Export Plug-In . SVG Version: 6.00 Build 0)  -->
<!DOCTYPE svg PUBLIC "-//W3C//DTD SVG 1.1//EN" "http://www.w3.org/Graphics/SVG/1.1/DTD/svg11.dtd">
<svg version="1.1" id="Layer_1" xmlns="http://www.w3.org/2000/svg" xmlns:xlink="http://www.w3.org/1999/xlink" x="0px" y="0px"
	 width="24.585px" height="21.734px" viewBox="0 0 24.585 21.734" enable-background="new 0 0 24.585 21.734" xml:space="preserve">
<path fill="#556080" d="M12.503,0.002C5.715-0.114,0.118,5.295,0.002,12.083c-0.066,3.849,1.65,7.308,4.381,9.608
	c0.179-0.156,0.37-0.299,0.583-0.415l3.668-2.001c0.481-0.263,0.781-0.767,0.781-1.315v-1.503c0,0-1.077-1.288-1.487-3.077
	c-0.34-0.22-0.569-0.601-0.569-1.035v-1.645c0-0.362,0.161-0.685,0.411-0.912V7.411c0,0-0.488-3.7,4.523-3.7s4.523,3.7,4.523,3.7
	v2.378c0.25,0.226,0.411,0.55,0.411,0.912v1.645c0,0.553-0.371,1.018-0.875,1.174c-0.281,0.873-0.686,1.704-1.221,2.46
	c-0.135,0.191-0.261,0.352-0.372,0.478v1.541c0,0.567,0.321,1.086,0.828,1.34l3.928,1.964c0.236,0.118,0.449,0.267,0.645,0.432
	c2.649-2.209,4.36-5.512,4.424-9.231C24.7,5.715,19.291,0.118,12.503,0.002z"/>
</svg>
