<?xml version="1.0" encoding="utf-8"?>
<!-- Generator: Adobe Illustrator 17.0.0, SVG Export Plug-In . SVG Version: 6.00 Build 0)  -->
<!DOCTYPE svg PUBLIC "-//W3C//DTD SVG 1.1//EN" "http://www.w3.org/Graphics/SVG/1.1/DTD/svg11.dtd">
<svg version="1.1" id="Layer_1" xmlns="http://www.w3.org/2000/svg" xmlns:xlink="http://www.w3.org/1999/xlink" x="0px" y="0px"
	 width="150.226px" height="190.906px" viewBox="0 0 150.226 190.906" enable-background="new 0 0 150.226 190.906"
	 xml:space="preserve">
<g>
	<path fill="#FFDD00" d="M117.953,33.621l-9.249,9.99c19.739,12.943,31.209,36.656,27.311,61.44
		c-2.569,16.336-11.349,30.695-24.717,40.43c-11.669,8.498-25.621,12.586-39.848,11.772l2.443-2.564
		c-0.047-0.002-0.099,0.004-0.146,0.002l9.255-9.71l-8.547-8.157l-18.354,19.268l-0.004-0.007l-7.919,8.316l8.542,8.15l0.004-0.002
		l19.261,18.356l7.926-8.316l-12.474-11.885c17.071,0.807,33.771-4.154,47.778-14.352c16.276-11.849,26.961-29.328,30.09-49.215
		C153.918,77.767,140.819,49.627,117.953,33.621z"/>
	<path fill="#FFDD00" d="M14.213,85.855c2.569-16.336,11.349-30.695,24.717-40.43c11.67-8.498,25.621-12.587,39.848-11.773
		l-2.443,2.564c0.047,0.002,0.099-0.004,0.146-0.002l-9.255,9.71l8.547,8.157l18.354-19.268l0.004,0.007l7.919-8.316l-8.542-8.15
		l-0.004,0.002L74.241,0l-7.926,8.316l12.474,11.885c-17.071-0.807-33.771,4.154-47.778,14.352
		C14.735,46.402,4.05,63.881,0.921,83.768c-4.618,29.373,8.484,57.513,31.348,73.52l9.249-9.99
		C21.785,134.35,10.315,110.639,14.213,85.855z"/>
</g>
</svg>
