<?xml version="1.0" encoding="utf-8"?>
<!-- Generator: Adobe Illustrator 17.0.0, SVG Export Plug-In . SVG Version: 6.00 Build 0)  -->
<!DOCTYPE svg PUBLIC "-//W3C//DTD SVG 1.1//EN" "http://www.w3.org/Graphics/SVG/1.1/DTD/svg11.dtd">
<svg version="1.1" id="Layer_1" xmlns="http://www.w3.org/2000/svg" xmlns:xlink="http://www.w3.org/1999/xlink" x="0px" y="0px"
	 width="117.085px" height="47.949px" viewBox="0 0 117.085 47.949" enable-background="new 0 0 117.085 47.949"
	 xml:space="preserve">
<g>
	<circle fill="#D9D9D9" cx="23.974" cy="23.975" r="23.974"/>
	<circle fill="#FFCB03" cx="23.974" cy="23.975" r="15.263"/>
	<g>
		<g>
			<path fill="#1D1D1B" d="M23.975,40.821c-9.289,0-16.847-7.557-16.847-16.846S14.685,7.128,23.975,7.128
				c5.329,0,10.4,2.563,13.566,6.857l-4.277,3.154c-2.201-2.985-5.587-4.696-9.289-4.696c-6.359,0-11.533,5.173-11.533,11.532
				s5.174,11.532,11.533,11.532c3.999,0,7.656-2.027,9.783-5.422l4.504,2.82C35.157,37.862,29.816,40.821,23.975,40.821z"/>
		</g>
		<g>
			<rect x="23.975" y="21.317" fill="#1D1D1B" width="16.847" height="5.314"/>
		</g>
	</g>
	<g>
		<path fill="#1D1D1B" d="M66.511,12.886c0.865,0.778,1.297,1.945,1.297,3.503c0,1.657-0.454,2.894-1.362,3.708
			c-0.908,0.814-2.198,1.222-3.87,1.222h-4.346V6.334h8.087l-0.324,2.573h-4.368v2.811h1.103
			C64.384,11.718,65.646,12.107,66.511,12.886z M63.84,18.28c0.281-0.382,0.422-1.006,0.422-1.87c0-0.793-0.145-1.381-0.433-1.763
			c-0.289-0.382-0.771-0.573-1.449-0.573h-0.757v4.779h0.8C63.087,18.853,63.56,18.662,63.84,18.28z"/>
		<path fill="#1D1D1B" d="M77.711,21.318h-2.94v-4.13c0-0.865,0.04-1.618,0.119-2.26s0.198-1.279,0.357-1.914l-3.005,8.304h-3.2
			V9.837h2.94v4.173c0,1.471-0.159,2.854-0.476,4.151l2.984-8.324h3.222V21.318z"/>
		<path fill="#1D1D1B" d="M85.56,10.345c0.721,0.584,1.081,1.352,1.081,2.303c0,0.648-0.191,1.183-0.573,1.601
			c-0.382,0.418-0.97,0.734-1.762,0.951c0.951,0.144,1.654,0.439,2.108,0.887c0.454,0.446,0.681,1.088,0.681,1.924
			c0,1.197-0.404,2.104-1.211,2.725c-0.808,0.619-1.903,0.93-3.287,0.93c-1.571,0-2.883-0.461-3.935-1.384l1.47-1.729
			c0.447,0.303,0.825,0.508,1.135,0.616c0.31,0.107,0.667,0.162,1.07,0.162c0.937,0,1.405-0.498,1.405-1.492
			c0-0.49-0.126-0.844-0.378-1.06c-0.252-0.216-0.659-0.324-1.222-0.324h-1.232l0.173-2.076h0.822c0.504,0,0.872-0.115,1.103-0.346
			c0.23-0.23,0.346-0.584,0.346-1.06c0-0.418-0.101-0.725-0.303-0.919c-0.202-0.194-0.483-0.292-0.843-0.292
			c-0.317,0-0.613,0.055-0.887,0.162c-0.274,0.108-0.583,0.285-0.93,0.53l-1.47-1.644c1.095-0.894,2.4-1.341,3.914-1.341
			C83.931,9.469,84.839,9.761,85.56,10.345z"/>
		<path fill="#1D1D1B" d="M93.971,21.318V16.69h-2.076v4.628H88.63V9.837h3.265v4.454h2.076V9.837h3.265v11.481H93.971z"/>
		<path fill="#1D1D1B" d="M107.831,16.54h-5.838c0.072,1.037,0.263,1.755,0.573,2.151s0.76,0.594,1.352,0.594
			c0.389,0,0.764-0.075,1.125-0.227c0.36-0.151,0.749-0.386,1.167-0.703l1.34,1.773c-1.067,1.038-2.356,1.557-3.87,1.557
			c-1.615,0-2.84-0.529-3.676-1.589c-0.836-1.06-1.254-2.541-1.254-4.443c0-1.903,0.4-3.409,1.2-4.52
			c0.8-1.109,1.942-1.665,3.427-1.665c1.413,0,2.519,0.501,3.319,1.503c0.8,1.002,1.2,2.462,1.2,4.379
			C107.896,15.811,107.874,16.208,107.831,16.54z M104.717,14.421c0-0.98-0.097-1.69-0.292-2.13c-0.195-0.439-0.538-0.66-1.027-0.66
			c-0.433,0-0.76,0.213-0.984,0.639c-0.224,0.425-0.364,1.192-0.421,2.303h2.724V14.421z"/>
		<path fill="#1D1D1B" d="M115.593,9.815c0.533,0.23,1.03,0.583,1.492,1.059l-1.34,1.795c-0.591-0.476-1.154-0.713-1.687-0.713
			c-0.591,0-1.031,0.27-1.319,0.811c-0.288,0.54-0.432,1.503-0.432,2.887c0,1.312,0.151,2.22,0.454,2.725
			c0.303,0.504,0.728,0.756,1.275,0.756c0.289,0,0.555-0.05,0.8-0.151c0.245-0.101,0.526-0.273,0.843-0.519l1.405,1.881
			c-0.937,0.895-2.018,1.341-3.243,1.341c-1.557,0-2.768-0.508-3.633-1.524c-0.865-1.016-1.297-2.512-1.297-4.486
			c0-1.283,0.198-2.39,0.595-3.319s0.962-1.644,1.697-2.141c0.735-0.497,1.6-0.746,2.595-0.746
			C114.461,9.469,115.06,9.585,115.593,9.815z"/>
		<path fill="#1D1D1B" d="M66.468,24.334l-0.346,2.681h-4.498v12.304h-3.395V24.334H66.468z"/>
		<path fill="#1D1D1B" d="M74.317,39.318h-2.94v-4.13c0-0.865,0.04-1.618,0.119-2.26s0.198-1.279,0.357-1.914l-3.005,8.304h-3.2
			V27.837h2.94v4.173c0,1.471-0.159,2.854-0.476,4.151l2.984-8.324h3.222V39.318z"/>
		<path fill="#1D1D1B" d="M85.193,36.896v5.968H83.03l-0.324-3.546h-4.995l-0.325,3.546h-2.162v-5.968h0.67
			c0.288-0.273,0.508-0.703,0.66-1.286c0.151-0.584,0.277-1.647,0.378-3.189l0.325-4.584h6.941v9.06H85.193z M81.192,30.02h-1.167
			l-0.151,2.249c-0.101,1.354-0.274,2.375-0.519,3.06s-0.627,1.207-1.146,1.567h2.984V30.02z"/>
	</g>
</g>
</svg>
