<?xml version="1.0" encoding="utf-8"?>
<!-- Generator: Adobe Illustrator 17.0.0, SVG Export Plug-In . SVG Version: 6.00 Build 0)  -->
<!DOCTYPE svg PUBLIC "-//W3C//DTD SVG 1.1//EN" "http://www.w3.org/Graphics/SVG/1.1/DTD/svg11.dtd">
<svg version="1.1" id="Layer_1" xmlns="http://www.w3.org/2000/svg" xmlns:xlink="http://www.w3.org/1999/xlink" x="0px" y="0px"
	 width="108.71px" height="108.71px" viewBox="0 0 108.71 108.71" enable-background="new 0 0 108.71 108.71" xml:space="preserve">
<g>
	<path fill="#415A6B" d="M104.18,16.986H4.53c-2.491,0-4.53,2.038-4.53,4.53v67.491c0,2.491,2.038,4.53,4.53,4.53h99.651
		c2.491,0,4.53-2.038,4.53-4.53V21.516C108.71,19.024,106.672,16.986,104.18,16.986z"/>
	<rect x="6.794" y="23.78" fill="#FFFFFF" width="95.121" height="62.735"/>
	<rect x="33.519" y="93.536" fill="#CCD5DF" width="41.446" height="12.23"/>
	<rect x="21.063" y="105.766" fill="#F1F1F1" width="66.585" height="2.944"/>
	<rect x="33.519" y="93.536" fill="#ACB3B9" width="41.446" height="3.397"/>
	<path fill="#F1F1F1" d="M93.762,25.366v57.526c0,2.038-1.585,3.624-3.624,3.624H18.345c-2.038,0-3.624-1.585-3.624-3.624V25.366
		H93.762z"/>
	<path fill="#FFD05E" d="M89.233,0H19.477c-2.491,0-4.53,2.038-4.53,4.53v11.777h79.041V4.53C93.762,2.038,91.724,0,89.233,0z"/>
	<polygon fill="#415A6B" points="70.435,59.338 74.738,74.738 78.588,70.888 82.212,74.738 85.609,71.341 81.985,67.491 
		85.609,63.641 	"/>
	<ellipse fill="#F8B64B" cx="44.616" cy="8.153" rx="2.718" ry="2.718"/>
	<ellipse fill="#EC6E5B" cx="34.198" cy="8.153" rx="2.718" ry="2.718"/>
	<ellipse fill="#F8B64B" cx="23.78" cy="8.153" rx="2.718" ry="2.718"/>
	<path fill="#E4EAEF" d="M93.762,27.178v10.644c-1.359,1.132-3.171,1.585-4.983,1.585c-4.756,0-8.606-3.85-8.606-8.606
		c0,4.756-3.85,8.606-8.606,8.606c-4.756,0-8.606-3.85-8.606-8.606c0,4.756-3.85,8.606-8.606,8.606s-8.606-3.85-8.606-8.606
		c0,4.756-3.85,8.606-8.606,8.606s-8.606-3.85-8.606-8.606c0,4.756-3.85,8.606-8.606,8.606c-1.812,0-3.624-0.68-4.983-1.585V27.178
		L93.762,27.178z"/>
	<polygon fill="#EC6E5B" points="28.536,25.366 11.324,25.366 14.948,16.307 30.575,16.307 	"/>
	<polygon fill="#CCD5DF" points="45.749,25.366 28.536,25.366 30.575,16.307 46.428,16.307 	"/>
	<polygon fill="#EC6E5B" points="62.961,25.366 45.749,25.366 46.428,16.307 62.282,16.307 	"/>
	<polygon fill="#CCD5DF" points="80.174,25.366 62.961,25.366 62.282,16.307 78.135,16.307 	"/>
	<polygon fill="#EC6E5B" points="97.386,25.366 80.174,25.366 78.135,16.307 93.762,16.307 	"/>
	<g>
		<path fill="#ACB3B9" d="M28.536,29.216c0,4.756,3.85,8.606,8.606,8.606s8.606-3.85,8.606-8.606v-3.85H28.536V29.216L28.536,29.216
			z"/>
		<path fill="#ACB3B9" d="M62.961,25.366v3.85c0,4.756,3.85,8.606,8.606,8.606c4.756,0,8.606-3.85,8.606-8.606v-3.85L62.961,25.366z
			"/>
	</g>
	<g>
		<path fill="#E95542" d="M11.324,29.216c0,4.756,3.85,8.606,8.606,8.606s8.606-3.85,8.606-8.606v-3.85H11.324V29.216z"/>
		<path fill="#E95542" d="M45.749,29.216c0,4.756,3.85,8.606,8.606,8.606s8.606-3.85,8.606-8.606v-3.85H45.749L45.749,29.216
			L45.749,29.216z"/>
		<path fill="#E95542" d="M80.174,25.366v3.85c0,4.756,3.85,8.606,8.606,8.606c4.756,0,8.606-3.85,8.606-8.606v-3.85L80.174,25.366z
			"/>
	</g>
</g>
</svg>
